<svg width="20" height="20" viewBox="0 0 20 20" fill="none" xmlns="http://www.w3.org/2000/svg">
<g clip-path="url(#clip0_53_861)">
<path d="M8.90836 4.986L8.19292 4.76097V4.76097L8.90836 4.986ZM7.14203 7.95025L7.59223 7.3504L7.14203 7.95025ZM7.559 9.2759L8.27445 9.50094L7.559 9.2759ZM9.32533 10.6015L8.87514 10.0017V10.0017L9.32533 10.6015ZM10.6747 10.6015L11.1249 10.0017L10.6747 10.6015ZM12.441 9.2759L11.7256 9.50094V9.50094L12.441 9.2759ZM12.858 7.95025L12.4078 7.3504L12.858 7.95025ZM11.0917 4.986L11.8071 4.76097V4.76097L11.0917 4.986ZM12.6417 18.037L12.1615 18.6131H12.1615L12.6417 18.037ZM11.8594 17.3849L12.3396 16.8088V16.8088L11.8594 17.3849ZM8.14061 17.3849L7.66041 16.8088L7.66041 16.8088L8.14061 17.3849ZM7.35828 18.037L7.83848 18.6131H7.83848L7.35828 18.037ZM14.9997 11.9272L14.2498 11.9144L14.2497 11.9216L14.2497 11.9288L14.9997 11.9272ZM15 11.9097L14.4377 11.4134V11.4134L15 11.9097ZM5.00034 11.9101L5.56261 11.4138L5.00034 11.9101ZM7.81671 6.5553C8.6548 6.5553 9.37591 5.99913 9.6238 5.21104L8.19292 4.76097C8.13347 4.94994 7.97315 5.0553 7.81671 5.0553V6.5553ZM7.59223 7.3504C7.43084 7.22928 7.38038 7.04077 7.4405 6.84964C7.50008 6.66021 7.63784 6.5553 7.81671 6.5553V5.0553C5.93003 5.0553 5.25942 7.47506 6.69183 8.5501L7.59223 7.3504ZM8.27445 9.50094C8.52119 8.71649 8.25511 7.8479 7.59223 7.3504L6.69183 8.5501C6.83355 8.65646 6.90415 8.85824 6.84356 9.05086L8.27445 9.50094ZM8.87514 10.0017C8.72251 10.1162 8.56321 10.1045 8.42617 10.0017C8.28563 9.89621 8.20637 9.71738 8.27445 9.50094L6.84356 9.05086C6.56804 9.92681 6.92215 10.7484 7.52578 11.2014C8.13292 11.6571 9.02858 11.762 9.77553 11.2014L8.87514 10.0017ZM11.1249 10.0017C10.4558 9.49957 9.54418 9.49957 8.87514 10.0017L9.77553 11.2014C9.91108 11.0997 10.0889 11.0997 10.2245 11.2014L11.1249 10.0017ZM11.7256 9.50094C11.7937 9.71738 11.7144 9.89621 11.5738 10.0017C11.4368 10.1045 11.2775 10.1162 11.1249 10.0017L10.2245 11.2014C10.9714 11.762 11.8671 11.6571 12.4742 11.2014C13.0779 10.7484 13.432 9.92681 13.1565 9.05086L11.7256 9.50094ZM12.4078 7.3504C11.7449 7.8479 11.4788 8.71649 11.7256 9.50094L13.1565 9.05086C13.0959 8.85824 13.1665 8.65646 13.3082 8.5501L12.4078 7.3504ZM12.1833 6.5553C12.3622 6.5553 12.4999 6.66021 12.5595 6.84964C12.6196 7.04077 12.5692 7.22928 12.4078 7.3504L13.3082 8.5501C14.7406 7.47506 14.07 5.0553 12.1833 5.0553V6.5553ZM10.3762 5.21104C10.6241 5.99913 11.3452 6.5553 12.1833 6.5553V5.0553C12.0269 5.0553 11.8665 4.94994 11.8071 4.76097L10.3762 5.21104ZM11.8071 4.76097C11.2433 2.96862 8.75669 2.96862 8.19292 4.76097L9.6238 5.21104C9.74724 4.8186 10.2528 4.8186 10.3762 5.21104L11.8071 4.76097ZM4.08334 7.50004C4.08334 4.23236 6.73233 1.58337 10 1.58337V0.083374C5.9039 0.083374 2.58334 3.40393 2.58334 7.50004H4.08334ZM10 1.58337C13.2677 1.58337 15.9167 4.23236 15.9167 7.50004H17.4167C17.4167 3.40393 14.0961 0.083374 10 0.083374V1.58337ZM14.25 12.3622V16.9823H15.75V12.3622H14.25ZM5.75001 16.9823V12.3622H4.25001V16.9823H5.75001ZM13.1219 17.4609L12.3396 16.8088L11.3792 17.9611L12.1615 18.6131L13.1219 17.4609ZM7.66041 16.8088L6.87809 17.4609L7.83848 18.6131L8.6208 17.9611L7.66041 16.8088ZM12.3396 16.8088C11.9107 16.4513 11.5367 16.1378 11.2004 15.9219C10.8462 15.6943 10.4613 15.5256 10 15.5256V17.0256C10.0672 17.0256 10.1684 17.0417 10.3899 17.184C10.6294 17.3378 10.9209 17.579 11.3792 17.9611L12.3396 16.8088ZM8.6208 17.9611C9.07915 17.579 9.37066 17.3378 9.61017 17.184C9.83165 17.0417 9.93286 17.0256 10 17.0256V15.5256C9.5387 15.5256 9.15385 15.6943 8.79957 15.9219C8.46331 16.1378 8.08935 16.4513 7.66041 16.8088L8.6208 17.9611ZM4.25001 16.9823C4.25001 17.6079 4.24797 18.1647 4.31016 18.5824C4.37103 18.9912 4.53284 19.5502 5.10962 19.8082L5.72204 18.4389C5.88299 18.5109 5.8369 18.651 5.79381 18.3615C5.75205 18.081 5.75001 17.6602 5.75001 16.9823H4.25001ZM6.87809 17.4609C6.34993 17.9011 6.01735 18.1759 5.76785 18.3296C5.50738 18.4901 5.5705 18.3711 5.72204 18.4389L5.10962 19.8082C5.67697 20.0619 6.20244 19.8238 6.5548 19.6066C6.91814 19.3827 7.34888 19.0212 7.83848 18.6131L6.87809 17.4609ZM14.25 16.9823C14.25 17.6602 14.248 18.081 14.2062 18.3615C14.1631 18.651 14.117 18.5109 14.278 18.4389L14.8904 19.8082C15.4672 19.5502 15.629 18.9912 15.6899 18.5824C15.752 18.1647 15.75 17.6079 15.75 16.9823H14.25ZM12.1615 18.6131C12.6511 19.0212 13.0819 19.3827 13.4452 19.6066C13.7976 19.8238 14.3231 20.0619 14.8904 19.8082L14.278 18.4389C14.4295 18.3711 14.4926 18.4901 14.2322 18.3296C13.9827 18.1759 13.6501 17.9011 13.1219 17.4609L12.1615 18.6131ZM15.75 12.3622C15.75 12.2085 15.75 12.0629 15.7497 11.9255L14.2497 11.9288C14.25 12.0642 14.25 12.2081 14.25 12.3622H15.75ZM15.9167 7.50004C15.9167 9.00109 15.3587 10.37 14.4377 11.4134L15.5623 12.406C16.7159 11.0991 17.4167 9.38048 17.4167 7.50004H15.9167ZM14.4377 11.4134C13.3525 12.643 11.7671 13.4167 10 13.4167V14.9167C12.2153 14.9167 14.2044 13.9445 15.5623 12.406L14.4377 11.4134ZM15.7496 11.9399L15.7499 11.9225L14.2501 11.897L14.2498 11.9144L15.7496 11.9399ZM5.75001 12.3622C5.75001 12.2017 5.75001 12.0523 5.75034 11.9119L4.25035 11.9084C4.25001 12.0508 4.25001 12.2021 4.25001 12.3622H5.75001ZM10 13.4167C8.23313 13.4167 6.64785 12.6432 5.56261 11.4138L4.43808 12.4065C5.79597 13.9447 7.78495 14.9167 10 14.9167V13.4167ZM5.56261 11.4138C4.64145 10.3703 4.08334 9.00125 4.08334 7.50004H2.58334C2.58334 9.38068 3.28429 11.0994 4.43808 12.4065L5.56261 11.4138Z" fill="#1D1D1F"/>
</g>
<defs>
<clipPath id="clip0_53_861">
<rect width="20" height="20" fill="white"/>
</clipPath>
</defs>
</svg>
