<svg width="218" height="194" viewBox="0 0 218 194" fill="none" xmlns="http://www.w3.org/2000/svg">
<path d="M165.717 108.592C166.196 108.637 166.66 108.597 167.102 108.491C166.662 108.417 166.199 108.443 165.717 108.592Z" fill="#605C58"/>
<path d="M147.71 23.1638C142.389 30.3594 144.942 26.6172 133.181 41.8353C122.23 56.0065 120.36 58.8053 116.353 59.452C112.052 60.1463 107.078 58.2858 97.7603 48.6413C90.3506 40.9713 80.2338 29.3496 69.5841 12.9707C71.593 16.7129 86.5511 44.7851 85.8024 52.9905C85.7411 53.6504 85.5893 55.3201 84.369 56.5313C81.9097 58.9696 76.8979 57.7637 73.5274 56.7539C63.4632 53.7326 43.2307 44.9939 32.4482 40.2286C31.3806 39.7568 30.4894 41.2049 31.3885 41.9493C42.9203 51.4963 55.6371 62.1534 69.1578 73.6974C73.8418 77.6967 81.4754 84.3464 79.8314 89.4085C78.6751 92.9732 73.3969 94.2718 70.4393 94.9291C54.9651 98.3718 28.9835 100.792 12.3244 102.099C11.0983 102.195 11.076 104.092 12.2992 104.22C27.8066 105.839 52.8126 108.746 64.162 111.722C67.1301 112.501 71.8675 113.94 72.7494 117.324C73.5301 120.33 71.4119 123.25 69.4215 125.644C64.1744 131.958 58.9257 138.272 53.6779 144.586C52.943 145.47 54.0488 146.711 55.0157 146.089C61.3344 142.025 67.7246 138.07 74.1829 134.231C76.4476 132.884 79.2399 131.519 81.5953 132.709C84.5954 134.223 84.4489 138.469 83.86 141.766C81.2602 156.327 78.6604 170.889 76.0606 185.453C75.8546 186.607 77.4638 187.114 77.9591 186.052C85.5611 169.746 93.4864 153.547 103.675 138.728C104.23 137.92 105.397 135.145 107.669 134.774C109.646 134.451 111.431 136.051 112.111 136.661C116.125 140.259 121.984 162.035 125.556 176.641C125.849 177.839 127.724 177.549 127.641 176.317C126.418 158.251 125.475 145.55 124.866 141.1C124.738 140.17 124.357 137.477 125.905 135.805C127.551 134.027 130.607 134.422 131.673 134.551C142.027 135.813 166.889 165.155 167.776 164.577C168.727 163.957 142.464 128.843 148.992 121.687C151.467 118.973 157.811 121.215 171.621 125.975C186.466 131.091 199.193 135.41 209.129 138.758C210.26 139.139 210.987 137.565 209.967 136.943C200.805 131.363 192.539 126.24 185.279 121.687C162.141 107.184 184.506 120.616 162.652 105.976C152.807 99.379 148.299 96.6757 148.137 92.3875C147.974 88.0383 152.368 84.3888 159.663 79.6474C166.254 75.3644 175.214 70.1919 186.711 65.2609C187.839 64.7772 187.267 62.7545 186.058 62.9662C168.242 66.0864 155.684 68.0502 152.746 68.1794C150.86 68.2616 149.719 67.7315 149.157 67.4003C147.247 66.2792 146.519 64.2411 146.216 63.3559C143.983 56.835 146.731 49.1009 146.732 49.0972C146.732 49.097 146.732 49.0971 146.733 49.097C149.498 41.3074 154.49 26.6865 161.384 7.57061C161.783 6.46252 160.24 5.6662 159.568 6.63308C154.956 13.2608 150.917 18.8274 147.71 23.1638Z" fill="url(#paint0_radial_616_90732)"/>
<path d="M114.353 25C113.33 40.2968 111.862 52.6772 110.583 61.7508C109.858 66.8929 108.97 72.8776 104.962 74.5151C100.681 76.264 96.0531 73.2569 92.4201 70.411C82.5323 62.6684 72.6469 54.9258 62.7591 47.1854C72.3151 56.5906 80.9652 66.9042 88.5561 77.9356C90.1209 80.2114 91.5943 83.4547 89.7 85.4693C88.8375 86.3869 87.7027 86.7412 87.037 86.8684C84.4805 87.3578 81.1225 87.7353 77.9096 88.017C76.706 88.1225 76.5691 90.331 77.7425 90.6187C80.9922 91.4153 84.4315 92.4541 87.2749 93.7638C88.5401 94.3453 90.1827 95.3151 91.0978 97.1207C92.0861 99.0694 91.576 101.502 90.3726 103.328C89.1692 105.154 87.3733 106.499 85.614 107.807C79.6999 112.202 73.7859 116.598 67.8718 120.993C66.9052 121.711 67.8614 123.349 68.9731 122.886C77.1181 119.493 85.4529 116.549 93.9278 114.073C95.8884 113.501 98.1968 113.01 99.8165 114.246C101.407 115.461 101.535 117.85 101.505 119.397C101.322 129.004 94.2389 148.187 93.8271 147.999C93.4817 147.842 99.86 135.044 107.471 124.316C109.874 120.93 111.237 119.638 113.07 119.37C120.853 118.236 129.26 137.68 130.85 141.448C126.57 128.15 125.593 120.871 127.917 119.615C128.638 119.226 129.675 119.414 131.029 120.18C132.098 120.785 134.992 118.63 134.597 117.467C133.183 113.313 132.623 108.933 134.881 106.149C136.956 103.591 140.617 103.355 142.946 103.237C153.464 102.706 164.424 103.125 173.803 103.808C175.01 103.896 175.386 101.993 174.237 101.617C162.899 97.913 153.643 94.4159 146.611 91.5925C140.978 89.3304 136.309 87.3135 135.613 83.5864C134.28 76.4253 148.709 68.7553 150.276 67.9377C142.474 71.1287 135.801 73.3841 130.729 74.949C126.783 76.1663 124.692 76.3321 123.15 75.9233C112.182 73.0207 113.886 33.8533 114.353 25Z" fill="#FEA929"/>
<path d="M98.9763 90.1029C97.5122 92.3561 95.5464 93.6324 92.5571 95.1421C87.4755 97.7105 79.0747 101.14 67 102.723C75.7713 102.417 82.0866 102.131 86.1221 101.934C90.8512 101.703 94.7036 101.487 99.1865 103.409C101.042 104.205 104.261 105.617 106.067 108.805C108.371 112.874 107.063 117.505 106.738 119.405C104.395 133.119 101.193 146.687 97.1552 160C102 146.625 106.844 133.253 111.688 119.878C113.564 114.701 115.907 109.002 120.925 106.769C124.439 105.205 128.488 105.738 132.279 106.37C138.739 107.449 145.163 108.739 151.54 110.237C152.741 110.519 153.478 108.478 152.371 107.934C145.799 104.706 140.067 101.692 135.228 99.0457C128.711 95.4822 123.966 92.6712 122.525 87.4642C121.366 83.2773 122.934 79.6616 125.27 74.1848C127.028 70.0663 129.407 64.4551 132.528 56.9968C132.993 55.8866 131.501 55.0816 130.834 56.0836C126.704 62.2918 123.379 67.4647 120.882 71.4101C117.902 76.1184 116.356 78.6732 113.695 79.1017C106.263 80.3031 98.1222 63.6619 96.0593 59.2732C97.824 64.3102 98.8159 68.6332 99.4034 71.7796C100.956 80.0946 101.905 85.6008 98.9763 90.1029Z" fill="url(#paint1_linear_616_90732)"/>
<defs>
<radialGradient id="paint0_radial_616_90732" cx="0" cy="0" r="1" gradientUnits="userSpaceOnUse" gradientTransform="translate(108.862 96.5379) rotate(90) scale(96.5379 108.862)">
<stop offset="0.307292" stop-color="#FF6D00"/>
<stop offset="1" stop-color="#FE87B3"/>
</radialGradient>
<linearGradient id="paint1_linear_616_90732" x1="115.5" y1="48" x2="115.5" y2="160" gradientUnits="userSpaceOnUse">
<stop stop-color="#FEDA8C"/>
<stop offset="0.734375" stop-color="#FEBB26"/>
</linearGradient>
</defs>
</svg>
